<svg width="18" height="18" viewBox="0 0 18 18" fill="none" xmlns="http://www.w3.org/2000/svg">
<path d="M6.9694 0C3.12438 0 0 3.12438 0 6.9694C0 10.8144 3.12438 13.9388 6.9694 13.9388C8.49075 13.9388 9.8968 13.4488 11.0434 12.6192L16.437 18L17.59 16.847L12.2605 11.5046C13.3078 10.2843 13.9388 8.70053 13.9388 6.9694C13.9388 3.12438 10.8144 0 6.9694 0ZM6.9694 0.819929C10.3708 0.819929 13.1189 3.56797 13.1189 6.9694C13.1189 10.3708 10.3708 13.1189 6.9694 13.1189C3.56797 13.1189 0.819929 10.3708 0.819929 6.9694C0.819929 3.56797 3.56797 0.819929 6.9694 0.819929Z" fill="white"/>
</svg>
