<svg width="182" height="61" viewBox="0 0 182 61" fill="none" xmlns="http://www.w3.org/2000/svg">
<g id="Group 1">
<g id="Logo">
<rect id="Rectangle 8" width="50" height="50" rx="9" fill="#169A00"/>
<circle id="Ellipse 1" cx="43" cy="36" r="25" fill="#0C3B00"/>
<line id="Line 1" x1="43.25" y1="11" x2="43.25" y2="61" stroke="black" stroke-width="0.5"/>
<line id="Line 2" x1="42.8018" y1="35.8476" x2="57.8018" y2="16.3476" stroke="black" stroke-width="0.5"/>
<line id="Line 3" x1="42.8018" y1="46.3476" x2="57.8018" y2="26.8476" stroke="black" stroke-width="0.5"/>
</g>
<path id="Lieben" d="M73.1597 41.5L78.629 10.5144H79.6292L74.3302 40.5636H88.9717L88.8015 41.5H73.1597ZM92.2704 41.5L95.9307 20.772H96.9097L93.2706 41.5H92.2704ZM96.8033 13.3874C96.8458 13.132 96.9664 12.9192 97.1651 12.7489C97.3637 12.5645 97.612 12.4723 97.9099 12.4723C98.2078 12.4723 98.4207 12.5645 98.5483 12.7489C98.676 12.9192 98.7186 13.1391 98.676 13.4086C98.6335 13.6782 98.5129 13.9052 98.3143 14.0896C98.1156 14.2599 97.8673 14.345 97.5694 14.345C97.2715 14.345 97.0516 14.2599 96.9097 14.0896C96.782 13.9052 96.7465 13.6711 96.8033 13.3874ZM99.5486 31.3275L99.6337 30.9232C100.201 27.7026 101.464 25.1205 103.422 23.1768C105.394 21.2189 107.77 20.24 110.551 20.24C113.261 20.24 115.155 21.0912 116.233 22.7937C117.311 24.482 117.609 26.7095 117.127 29.476L116.978 30.2209H100.336L100.485 29.3484H116.148L116.191 29.0504C116.602 26.7379 116.347 24.8509 115.424 23.3896C114.516 21.9141 112.821 21.1763 110.338 21.1763C107.799 21.1763 105.67 22.0701 103.954 23.8578C102.251 25.6312 101.152 27.9367 100.655 30.7742L100.528 31.4552C100.017 34.3069 100.315 36.6266 101.421 38.4142C102.528 40.2018 104.493 41.0957 107.316 41.0957C108.962 41.0957 110.409 40.7835 111.658 40.1593C112.906 39.535 113.942 38.7689 114.765 37.8609L115.339 38.4993C114.573 39.3931 113.488 40.2018 112.083 40.9254C110.679 41.649 109.026 42.0108 107.125 42.0108C104.103 42.0108 101.939 41.0389 100.634 39.0952C99.3428 37.1515 98.9811 34.5623 99.5486 31.3275ZM118.915 41.5L124.533 9.76954H125.512L123.022 23.9216C123.873 22.9711 125.001 22.1411 126.406 21.4317C127.824 20.7081 129.442 20.3464 131.258 20.3464C133.897 20.3464 135.819 21.304 137.025 23.2193C138.231 25.1205 138.557 27.6459 138.004 30.7955L137.919 31.2637C137.351 34.4843 136.117 37.0664 134.216 39.0101C132.329 40.9538 130.045 41.9256 127.363 41.9256C125.533 41.9256 124.029 41.5426 122.852 40.7764C121.688 39.9961 120.894 39.1236 120.468 38.1588H120.447L119.851 41.5H118.915ZM120.723 36.9245C121.107 38.0028 121.844 38.9533 122.937 39.7762C124.043 40.5849 125.491 40.9892 127.278 40.9892C129.846 40.9892 131.96 40.1167 133.62 38.3716C135.28 36.6266 136.372 34.2856 136.897 31.3488L137.004 30.7316C137.5 27.88 137.231 25.5887 136.195 23.8578C135.174 22.1269 133.393 21.2615 130.853 21.2615C129.052 21.2615 127.441 21.6729 126.023 22.4958C124.618 23.3045 123.54 24.2267 122.788 25.2623L120.723 36.9245ZM140.962 31.3275L141.047 30.9232C141.615 27.7026 142.877 25.1205 144.835 23.1768C146.807 21.2189 149.184 20.24 151.964 20.24C154.674 20.24 156.568 21.0912 157.647 22.7937C158.725 24.482 159.023 26.7095 158.54 29.476L158.391 30.2209H141.749L141.898 29.3484H157.561L157.604 29.0504C158.015 26.7379 157.76 24.8509 156.838 23.3896C155.93 21.9141 154.234 21.1763 151.752 21.1763C149.212 21.1763 147.084 22.0701 145.367 23.8578C143.665 25.6312 142.565 27.9367 142.069 30.7742L141.941 31.4552C141.43 34.3069 141.728 36.6266 142.835 38.4142C143.941 40.2018 145.906 41.0957 148.73 41.0957C150.375 41.0957 151.823 40.7835 153.071 40.1593C154.32 39.535 155.355 38.7689 156.178 37.8609L156.753 38.4993C155.987 39.3931 154.901 40.2018 153.497 40.9254C152.092 41.649 150.439 42.0108 148.538 42.0108C145.516 42.0108 143.353 41.0389 142.047 39.0952C140.756 37.1515 140.395 34.5623 140.962 31.3275ZM160.328 41.5L163.988 20.772H164.904L164.286 24.4537H164.308C165.23 23.3045 166.422 22.3326 167.883 21.5381C169.344 20.7436 170.976 20.3464 172.778 20.3464C174.906 20.3464 176.488 20.8784 177.523 21.9425C178.559 22.9923 178.857 24.7303 178.417 27.1564L175.906 41.5H174.906L177.438 27.1777C177.793 25.0921 177.516 23.5882 176.608 22.666C175.7 21.7296 174.267 21.2615 172.309 21.2615C170.579 21.2615 169.004 21.6942 167.585 22.5596C166.18 23.4109 165.031 24.4182 164.137 25.5816L161.328 41.5H160.328Z" fill="white"/>
<circle id="Ellipse 2" cx="96" cy="14.5" r="3.5" fill="#4D8406"/>
</g>
</svg>
