<svg width="47" height="47" viewBox="0 0 47 47" fill="none" xmlns="http://www.w3.org/2000/svg">
<circle cx="23.1073" cy="23.1073" r="23.1073" fill="#0E0D0D"/>
<path d="M21 20V16.25C21 15.6533 21.2371 15.081 21.659 14.659C22.081 14.2371 22.6533 14 23.25 14H29.25C29.8467 14 30.419 14.2371 30.841 14.659C31.2629 15.081 31.5 15.6533 31.5 16.25V29.75C31.5 30.3467 31.2629 30.919 30.841 31.341C30.419 31.7629 29.8467 32 29.25 32H23.25C22.6533 32 22.081 31.7629 21.659 31.341C21.2371 30.919 21 30.3467 21 29.75V26M18 26L15 23M15 23L18 20M15 23H27.75" stroke="#FF0000" stroke-width="2" stroke-linecap="round" stroke-linejoin="round"/>
</svg>
