<svg width="47" height="46" viewBox="0 0 47 46" fill="none" xmlns="http://www.w3.org/2000/svg">
<ellipse cx="23.105" cy="23" rx="23.105" ry="23" fill="#0E0D0D"/>
<path d="M25.99 19.7505L25.644 28.7505M20.856 28.7505L20.51 19.7505M30.478 16.5405C30.82 16.5925 31.16 16.6475 31.5 16.7065M30.478 16.5405L29.41 30.4235C29.3664 30.9887 29.1111 31.5167 28.695 31.9018C28.279 32.2868 27.7329 32.5007 27.166 32.5005H19.334C18.7671 32.5007 18.221 32.2868 17.805 31.9018C17.3889 31.5167 17.1336 30.9887 17.09 30.4235L16.022 16.5405M30.478 16.5405C29.3239 16.366 28.1638 16.2336 27 16.1435M16.022 16.5405C15.68 16.5915 15.34 16.6465 15 16.7055M16.022 16.5405C17.1761 16.366 18.3362 16.2336 19.5 16.1435M27 16.1435V15.2275C27 14.0475 26.09 13.0635 24.91 13.0265C23.8036 12.9912 22.6964 12.9912 21.59 13.0265C20.41 13.0635 19.5 14.0485 19.5 15.2275V16.1435M27 16.1435C24.5037 15.9506 21.9963 15.9506 19.5 16.1435" stroke="#FF0000" stroke-width="1.5" stroke-linecap="round" stroke-linejoin="round"/>
</svg>
